<?xml version="1.0" encoding="utf-8"?>
<!-- Generator: Adobe Illustrator 14.0.0, SVG Export Plug-In . SVG Version: 6.00 Build 43363)  -->
<!DOCTYPE svg PUBLIC "-//W3C//DTD SVG 1.1//EN" "http://www.w3.org/Graphics/SVG/1.1/DTD/svg11.dtd">
<svg version="1.1" id="レイヤー_1" xmlns="http://www.w3.org/2000/svg" xmlns:xlink="http://www.w3.org/1999/xlink" x="0px"
	 y="0px" width="16px" height="16px" viewBox="0 0 16 16" enable-background="new 0 0 16 16" xml:space="preserve">
<path d="M6.156,11C5.031,11,3,11,3,11c-0.6,0-1-0.4-1-1V3.8c0,0.1,0.1,0.1,0.2,0.1l5.5,4C7.8,8,7.9,8,8,8s0.2,0,0.3-0.1l5.5-4
	C13.9,3.9,13.9,3.8,13.9,3.7C14,3.8,14,3.9,14,4c0,0,0,3.469,0,4.469s2,0.969,2,0S16,4,16,4c0-1.7-1.3-3-3-3H3C1.3,1,0,2.3,0,4v6
	c0,1.7,1.3,3,3,3c0,0,2.063,0,3.156,0S7.281,11,6.156,11z M3,3h10c0.1,0,0.2,0,0.3,0.1h-0.1L8,6.9L2.8,3.1H2.7C2.8,3,2.9,3,3,3z"/>
<path d="M11.256,8c-0.21,0-0.41,0.083-0.559,0.231l-2.372,2.372c-0.048,0.049-0.09,0.104-0.125,0.163
	c-0.069,0.121-0.106,0.257-0.106,0.396c0,0.139,0.037,0.274,0.106,0.396c0.035,0.06,0.077,0.114,0.125,0.163l2.372,2.372
	c0.309,0.309,0.81,0.309,1.118,0s0.309-0.809,0-1.118l-1.022-1.021h3.23c0.232,0,0.396,0.162,0.396,0.395v1.977
	c0,0.438,0.354,0.791,0.79,0.791c0.438,0,0.791-0.354,0.791-0.791v-1.977c0-1.081-0.895-1.977-1.977-1.977h-3.23l1.022-1.021
	c0.309-0.31,0.309-0.81,0-1.118C11.667,8.083,11.466,8,11.256,8z"/>
</svg>
