<?xml version="1.0" encoding="utf-8"?>
<!-- Generator: Adobe Illustrator 14.0.0, SVG Export Plug-In . SVG Version: 6.00 Build 43363)  -->
<!DOCTYPE svg PUBLIC "-//W3C//DTD SVG 1.1//EN" "http://www.w3.org/Graphics/SVG/1.1/DTD/svg11.dtd">
<svg version="1.1" id="レイヤー_1" xmlns="http://www.w3.org/2000/svg" xmlns:xlink="http://www.w3.org/1999/xlink" x="0px"
	 y="0px" width="16px" height="16px" viewBox="0 0 16 16" enable-background="new 0 0 16 16" xml:space="preserve">
<g>
	<path d="M5.01,8.959c0,0.157,0.127,0.284,0.284,0.284h1.018c-0.304-0.115-0.582-0.295-0.8-0.544L5.49,8.674H5.294
		C5.136,8.674,5.01,8.802,5.01,8.959z"/>
	<path d="M7.742,9.243h0.397c0.157,0,0.284-0.127,0.284-0.284c0-0.048-0.03-0.082-0.05-0.122c-0.016,0.016-0.024,0.035-0.041,0.05
		C8.156,9.041,7.956,9.159,7.742,9.243z"/>
	<path d="M8.424,11.235c0-0.157-0.127-0.285-0.284-0.285H5.294c-0.157,0-0.284,0.128-0.284,0.285c0,0.156,0.127,0.284,0.284,0.284
		h2.846C8.297,11.52,8.424,11.392,8.424,11.235z"/>
	<path d="M10.664,6.897v0.079C10.293,6.85,9.716,6.703,8.853,6.584c0.131,0.301,0.159,0.628,0.134,0.952h0.471
		c0.314,0,0.569,0.255,0.569,0.569v5.69c0,0.314-0.255,0.569-0.569,0.569H4.905c-0.314,0-0.569-0.255-0.569-0.569v-5.69
		c0-0.207,0.116-0.379,0.28-0.479l-0.734-0.88C3.469,7.058,3.198,7.548,3.198,8.105v5.69c0,0.942,0.765,1.707,1.707,1.707h4.553
		c0.942,0,1.707-0.765,1.707-1.707v-5.69C11.165,7.634,10.973,7.207,10.664,6.897z"/>
	<path d="M5.294,12.089c-0.157,0-0.284,0.128-0.284,0.284c0,0.157,0.127,0.284,0.284,0.284h1.138c0.157,0,0.285-0.127,0.285-0.284
		c0-0.156-0.127-0.284-0.285-0.284H5.294z"/>
	<path d="M8.139,9.813H5.294c-0.157,0-0.284,0.127-0.284,0.284s0.127,0.285,0.284,0.285h2.846c0.157,0,0.284-0.128,0.284-0.285
		S8.297,9.813,8.139,9.813z"/>
</g>
<g>
	<path d="M6.262,8.04c0.364,0.415,0.996,0.458,1.411,0.095C8.09,7.771,8.132,7.139,7.768,6.723L6.663,5.396
		C9.906,5.533,11.74,6.08,12.106,6.81c0.119,0.238,0.114,0.561,0.008,0.947c0.017,0.117,0.051,0.228,0.051,0.349v3.363
		c1.838-2.209,2.486-4.041,1.729-5.552C13.086,4.3,10.68,3.542,6.612,3.391l1.156-1.388C8.099,1.585,8.045,0.98,7.643,0.629
		C7.227,0.266,6.595,0.308,6.232,0.723l-3.034,3.64l3.034,3.641C6.242,8.016,6.252,8.028,6.262,8.04z"/>
	<path d="M9.027,12.577v-0.406C8.999,12.307,8.999,12.441,9.027,12.577z"/>
</g>
</svg>
